<svg id="color" enable-background="new 0 0 24 24" height="512" viewBox="0 0 24 24" width="512" xmlns="http://www.w3.org/2000/svg"><path d="m8.5 0v10h-8.5v-6.5c0-.21.13-.4.32-.47l8-3z" fill="#78909c"/><path d="m17 10c-.04 9.06-8.31 10.97-8.39 10.99l-.11.01v-11z" fill="#78909c"/><path d="m1.22 2.693-.9.337c-.19.07-.32.26-.32.47v6.5h8.5v-.027z" fill="#687d88"/><path d="m8.527 10h-.027v11l.11-.01c.055-.014 3.996-.925 6.457-4.451z" fill="#687d88"/><path d="m17 3.5v6.5h-8.5v-10l.18.03 8 3c.19.07.32.26.32.47z" fill="#cfd8dc"/><path d="m8.5 10v11l-.11-.01c-.08-.02-8.35-1.93-8.39-10.99z" fill="#cfd8dc"/><path d="m8.5 0v10h.001l7.3-7.3-7.121-2.67z" fill="#b4bcc0"/><path d="m8.5 10h-8.5c.013 2.829.828 4.961 1.945 6.556z" fill="#b4bcc0"/><path d="m17.502 11.007c-3.584-.009-6.507 2.9-6.515 6.484-.009 3.584 2.901 6.507 6.484 6.515s6.507-2.901 6.515-6.484c.009-3.584-2.9-6.507-6.484-6.515zm-.004 2c.879.002 1.692.267 2.385.706l-6.202 6.171c-.435-.694-.696-1.509-.694-2.387.006-2.483 2.029-4.496 4.511-4.49zm-.022 9c-.879-.002-1.692-.267-2.385-.706l6.202-6.171c.435.694.696 1.508.694 2.387-.006 2.482-2.029 4.495-4.511 4.49z" fill="#f44336"/><path d="m17.502 11.007c-3.584-.009-6.507 2.9-6.515 6.484-.009 3.584 2.901 6.507 6.484 6.515l.005-2c-.879-.002-1.692-.267-2.385-.706l2.392-2.38.007-2.828-3.81 3.791c-.435-.694-.696-1.509-.694-2.387.006-2.481 2.029-4.495 4.511-4.489z" fill="#d43a2f"/></svg>